<svg width="24" height="24" viewBox="0 0 24 24" fill="none" xmlns="http://www.w3.org/2000/svg">
<path d="M19.5143 4.48589C17.5314 2.50308 14.3229 2.50308 12.3424 4.48589L10.0713 6.75698L11.2666 7.9523L13.5377 5.6812C14.7986 4.42026 16.9268 4.28667 18.3189 5.6812C19.7135 7.07573 19.5799 9.20151 18.3189 10.4625L16.0479 12.7335L17.2455 13.9312L19.5166 11.6601C21.4947 9.6773 21.4947 6.4687 19.5143 4.48589ZM10.465 18.3187C9.2041 19.5796 7.07598 19.7132 5.68379 18.3187C4.28926 16.9242 4.42285 14.7984 5.68379 13.5375L7.95488 11.2664L6.75723 10.0687L4.48613 12.3398C2.50332 14.3226 2.50332 17.5312 4.48613 19.5117C6.46894 21.4921 9.67754 21.4945 11.658 19.5117L13.9291 17.2406L12.7338 16.0453L10.465 18.3187ZM6.10098 4.90776C6.06574 4.87287 6.01815 4.8533 5.96855 4.8533C5.91896 4.8533 5.87137 4.87287 5.83613 4.90776L4.90801 5.83589C4.87311 5.87113 4.85354 5.91872 4.85354 5.96831C4.85354 6.0179 4.87311 6.06549 4.90801 6.10073L17.9018 19.0945C17.9744 19.1671 18.0939 19.1671 18.1666 19.0945L19.0947 18.1664C19.1674 18.0937 19.1674 17.9742 19.0947 17.9015L6.10098 4.90776Z" fill="black"/>
</svg>
