<svg width="99" height="99" viewBox="0 0 99 99" fill="none" xmlns="http://www.w3.org/2000/svg">
<path d="M49.5 6.18746C53.4638 6.18746 57.2827 6.70308 60.9565 7.73433C64.6303 8.76558 68.0786 10.2158 71.3012 12.0849C74.5239 13.9541 77.4565 16.226 80.0991 18.9008C82.7417 21.5756 84.9975 24.4921 86.8667 27.6503C88.7358 30.8086 90.2021 34.2568 91.2656 37.9951C92.3291 41.7334 92.8447 45.5683 92.8125 49.5C92.8125 53.4638 92.2968 57.2827 91.2656 60.9565C90.2343 64.6303 88.7841 68.0786 86.915 71.3012C85.0459 74.5239 82.7739 77.4565 80.0991 80.0991C77.4243 82.7417 74.5078 84.9975 71.3496 86.8667C68.1914 88.7358 64.7431 90.2021 61.0048 91.2656C57.2666 92.3291 53.4316 92.8447 49.5 92.8125C45.5361 92.8125 41.7172 92.2968 38.0434 91.2656C34.3696 90.2343 30.9213 88.7841 27.6987 86.915C24.476 85.0459 21.5434 82.7739 18.9008 80.0991C16.2583 77.4243 14.0024 74.5078 12.1333 71.3496C10.2641 68.1914 8.79781 64.7431 7.73433 61.0048C6.67086 57.2666 6.15523 53.4316 6.18746 49.5C6.18746 45.5361 6.70308 41.7172 7.73433 38.0434C8.76558 34.3696 10.2158 30.9213 12.0849 27.6987C13.9541 24.476 16.226 21.5434 18.9008 18.9008C21.5756 16.2583 24.4921 14.0024 27.6503 12.1333C30.8086 10.2641 34.2568 8.79781 37.9951 7.73433C41.7334 6.67086 45.5683 6.15523 49.5 6.18746ZM49.5 86.625C52.916 86.625 56.2031 86.1899 59.3613 85.3198C62.5195 84.4497 65.4682 83.1928 68.2075 81.5493C70.9467 79.9057 73.4604 77.9721 75.7485 75.7485C78.0366 73.5249 79.9702 71.0273 81.5493 68.2558C83.1284 65.4843 84.3691 62.5195 85.2714 59.3613C86.1738 56.2031 86.625 52.916 86.625 49.5C86.625 46.0839 86.1899 42.7968 85.3198 39.6386C84.4497 36.4804 83.1928 33.5317 81.5493 30.7924C79.9057 28.0532 77.9721 25.5395 75.7485 23.2514C73.5249 20.9633 71.0273 19.0297 68.2558 17.4506C65.4843 15.8715 62.5195 14.6308 59.3613 13.7285C56.2031 12.8261 52.916 12.375 49.5 12.375C46.0839 12.375 42.7968 12.81 39.6386 13.6801C36.4804 14.5503 33.5317 15.8071 30.7924 17.4506C28.0532 19.0942 25.5395 21.0278 23.2514 23.2514C20.9633 25.4751 19.0297 27.9726 17.4506 30.7441C15.8715 33.5156 14.6308 36.4804 13.7285 39.6386C12.8261 42.7968 12.375 46.0839 12.375 49.5C12.375 52.916 12.81 56.2031 13.6801 59.3613C14.5503 62.5195 15.8071 65.4682 17.4506 68.2075C19.0942 70.9467 21.0278 73.4604 23.2514 75.7485C25.4751 78.0366 27.9726 79.9702 30.7441 81.5493C33.5156 83.1284 36.4804 84.3691 39.6386 85.2714C42.7968 86.1738 46.0839 86.625 49.5 86.625ZM49.5 30.9375C52.0459 30.9375 54.4467 31.4209 56.7026 32.3877C58.9585 33.3544 60.9243 34.6919 62.6001 36.3999C64.2758 38.1079 65.5971 40.0737 66.5639 42.2973C67.5307 44.521 68.0302 46.9218 68.0625 49.5C68.0625 52.0459 67.5791 54.4467 66.6123 56.7026C65.6455 58.9585 64.3081 60.9243 62.6001 62.6001C60.892 64.2758 58.9262 65.5971 56.7026 66.5639C54.479 67.5307 52.0781 68.0302 49.5 68.0625C46.9541 68.0625 44.5532 67.5791 42.2973 66.6123C40.0415 65.6455 38.0756 64.3081 36.3999 62.6001C34.7241 60.892 33.4028 58.9262 32.436 56.7026C31.4692 54.479 30.9697 52.0781 30.9375 49.5C30.9375 46.9541 31.4209 44.5532 32.3877 42.2973C33.3544 40.0415 34.6919 38.0756 36.3999 36.3999C38.1079 34.7241 40.0737 33.4028 42.2973 32.436C44.521 31.4692 46.9218 30.9697 49.5 30.9375Z" fill="#FE4A31"/>
</svg>
