<svg width="30" height="30" viewBox="0 0 30 30" fill="none" xmlns="http://www.w3.org/2000/svg">
<path d="M18.75 11.25V13.125H13.125C12.1304 13.125 11.1766 13.5201 10.4733 14.2233C9.77009 14.9266 9.375 15.8804 9.375 16.875V20.625C9.375 21.6196 9.77009 22.5734 10.4733 23.2766C11.1766 23.9799 12.1304 24.375 13.125 24.375H22.5C23.4946 24.375 24.4484 23.9799 25.1516 23.2766C25.8549 22.5734 26.25 21.6196 26.25 20.625V16.875C26.25 16.2168 26.0767 15.5701 25.7476 15.0001C25.4184 14.43 24.9451 13.9566 24.375 13.6275V11.5688C26.5594 12.3413 28.125 14.4244 28.125 16.8731V20.6231C28.125 22.115 27.5324 23.5457 26.4775 24.6006C25.4226 25.6555 23.9918 26.2481 22.5 26.2481H13.125C11.6332 26.2481 10.2024 25.6555 9.14752 24.6006C8.09263 23.5457 7.5 22.115 7.5 20.6231V16.875C7.5 15.3832 8.09263 13.9524 9.14752 12.8975C10.2024 11.8426 11.6332 11.25 13.125 11.25H18.75Z" fill="#E4C087"/>
<path d="M11.25 18.75V16.875H16.875C17.8696 16.875 18.8234 16.4799 19.5266 15.7766C20.2299 15.0734 20.625 14.1196 20.625 13.125V9.375C20.625 8.38044 20.2299 7.42661 19.5266 6.72335C18.8234 6.02009 17.8696 5.625 16.875 5.625H7.5C6.50544 5.625 5.55161 6.02009 4.84835 6.72335C4.14509 7.42661 3.75 8.38044 3.75 9.375V13.125C3.75002 13.7832 3.9233 14.4299 4.25243 14.9999C4.58156 15.57 5.05494 16.0434 5.625 16.3725V18.4312C4.52798 18.0431 3.57827 17.3244 2.90668 16.3741C2.23509 15.4238 1.87465 14.2887 1.875 13.125V9.375C1.875 7.88316 2.46763 6.45242 3.52252 5.39752C4.57742 4.34263 6.00816 3.75 7.5 3.75H16.875C18.3668 3.75 19.7976 4.34263 20.8525 5.39752C21.9074 6.45242 22.5 7.88316 22.5 9.375V13.125C22.5 14.6168 21.9074 16.0476 20.8525 17.1025C19.7976 18.1574 18.3668 18.75 16.875 18.75H11.25Z" fill="#E4C087"/>
</svg>
