<svg width="30" height="30" viewBox="0 0 30 30" fill="none" xmlns="http://www.w3.org/2000/svg">
<path d="M13.5 6.75C13.5 7.74456 13.1049 8.69839 12.4017 9.40165C11.6984 10.1049 10.7446 10.5 9.75 10.5C8.75544 10.5 7.80161 10.1049 7.09835 9.40165C6.39509 8.69839 6 7.74456 6 6.75C6 5.75544 6.39509 4.80161 7.09835 4.09835C7.80161 3.39509 8.75544 3 9.75 3C10.7446 3 11.6984 3.39509 12.4017 4.09835C13.1049 4.80161 13.5 5.75544 13.5 6.75ZM16.098 13.5C15.8347 13.044 15.456 12.6652 15 12.4019C14.5439 12.1386 14.0266 12 13.5 12H6C5.20435 12 4.44129 12.3161 3.87868 12.8787C3.31607 13.4413 3 14.2044 3 15V18.75C3 19.1478 3.15804 19.5294 3.43934 19.8107C3.72064 20.092 4.10218 20.25 4.5 20.25C4.89782 20.25 5.27936 20.092 5.56066 19.8107C5.84196 19.5294 6 19.1478 6 18.75V25.125C6 25.6223 6.19754 26.0992 6.54917 26.4508C6.90081 26.8025 7.37772 27 7.875 27C8.37228 27 8.84919 26.8025 9.20083 26.4508C9.55246 26.0992 9.75 25.6223 9.75 25.125C9.75 25.6223 9.94754 26.0992 10.2992 26.4508C10.6508 26.8025 11.1277 27 11.625 27C12.1223 27 12.5992 26.8025 12.9508 26.4508C13.3025 26.0992 13.5 25.6223 13.5 25.125V18.75C13.5 19.1478 13.658 19.5294 13.9393 19.8107C14.2206 20.092 14.6022 20.25 15 20.25C15.3978 20.25 15.7794 20.092 16.0607 19.8107C16.342 19.5294 16.5 19.1478 16.5 18.75V15C16.5 14.4734 16.3613 13.956 16.098 13.5ZM21 12C21.7956 12 22.5587 11.6839 23.1213 11.1213C23.6839 10.5587 24 9.79565 24 9C24 8.20435 23.6839 7.44129 23.1213 6.87868C22.5587 6.31607 21.7956 6 21 6C20.2044 6 19.4413 6.31607 18.8787 6.87868C18.3161 7.44129 18 8.20435 18 9C18 9.79565 18.3161 10.5587 18.8787 11.1213C19.4413 11.6839 20.2044 12 21 12ZM16.5 21.348C16.956 21.0847 17.3348 20.706 17.5981 20.25C17.8614 19.7939 18 19.2766 18 18.75V15C18 14.475 17.91 13.9695 17.745 13.5H24C24.7956 13.5 25.5587 13.8161 26.1213 14.3787C26.6839 14.9413 27 15.7044 27 16.5V19.5C27 19.8978 26.842 20.2794 26.5607 20.5607C26.2794 20.842 25.8978 21 25.5 21C25.1022 21 24.7206 20.842 24.4393 20.5607C24.158 20.2794 24 19.8978 24 19.5V25.125C24 25.6223 23.8025 26.0992 23.4508 26.4508C23.0992 26.8025 22.6223 27 22.125 27C21.6277 27 21.1508 26.8025 20.7992 26.4508C20.4475 26.0992 20.25 25.6223 20.25 25.125C20.25 25.6223 20.0525 26.0992 19.7008 26.4508C19.3492 26.8025 18.8723 27 18.375 27C17.8777 27 17.4008 26.8025 17.0492 26.4508C16.6975 26.0992 16.5 25.6223 16.5 25.125V21.348Z" fill="#A2D2DF"/>
</svg>
