<svg width="331" height="58" viewBox="0 0 331 58" fill="none" xmlns="http://www.w3.org/2000/svg">
<rect y="39" width="331" height="19" rx="9.5" fill="#D9D9D9"/>
<rect y="39" width="270" height="19" rx="9.5" fill="#A2D2DF"/>
<g clip-path="url(#clip0_453_382)">
<path d="M256.84 29.9051C256.475 29.6516 253.501 27.7055 254.536 26.9409C256.502 25.4845 258.976 24.5545 261.465 24.4385C260.759 22.9221 260.236 21.321 259.827 19.7065C259.369 17.9098 258.959 16.0785 258.99 14.2245C259.001 13.6199 258.999 12.7302 259.453 12.276C259.776 11.956 260.495 12.1743 260.887 12.3179C261.477 12.5302 262.06 12.8023 262.621 13.1136C263.783 13.759 264.91 14.618 265.898 15.582C266.363 16.0344 266.777 16.5288 267.172 17.0428C267.459 15.375 267.981 13.7642 268.722 12.2598C269.845 9.98675 271.266 7.54619 273.082 5.78178C273.395 5.47644 273.671 5.30552 273.92 5.23603C274.654 5.03986 275.156 5.78319 275.691 6.8004C277.727 10.6826 278.924 15.3592 278.18 19.682C278.568 19.4552 278.955 19.2381 279.34 19.0344C280.66 18.3388 281.995 17.6419 283.43 17.2024C284.234 16.9568 286.707 16.201 287.291 17.2763C287.607 17.8569 287.372 18.7075 287.223 19.2891C286.763 21.0717 285.891 22.6879 284.982 24.258C284.222 25.5696 283.378 26.8381 282.404 27.9897C284.588 28.8395 286.58 30.3334 288.055 32.1445C288.891 33.1733 285.59 34.237 285.18 34.3825C283.348 35.038 281.458 35.6502 279.48 35.6418C278.763 35.6391 277.971 35.5617 277.164 35.399C277.46 36.1736 277.673 36.9454 277.759 37.6478C277.832 38.2296 276.332 37.8069 276.141 37.7589C274.079 37.2455 272.156 35.9788 270.944 34.1834C270.933 34.1676 270.925 34.1531 270.916 34.1361C270.699 34.3784 270.459 34.5952 270.203 34.7647C268.452 35.924 266.233 36.3006 264.147 35.924C263.954 35.8893 262.421 35.6608 262.69 35.1523C263.059 34.4577 263.606 33.7551 264.246 33.0907C263.487 33.0178 262.752 32.8788 262.102 32.6951C260.18 32.1633 258.475 31.048 256.84 29.9051Z" fill="#A2D2DF"/>
<path d="M276.141 36.35C276.141 36.35 274 34.5126 271.339 33.9588C268.97 33.4619 266.11 34.2178 265.195 34.5656C265.195 34.5656 267.309 33.5466 270.204 33.2656C270.204 33.2656 264.115 27.487 256.599 27.8357C256.599 27.8357 262.297 26.2388 270.34 32.5233C270.34 32.5233 269.461 26.3994 261.471 15.761C261.471 15.761 268.98 24.7638 270.889 32.3351C270.889 32.3351 273.873 27.1966 273.886 7.78345C273.886 7.78345 275.035 23.3632 271.774 32.2983C271.774 32.2983 276.162 26.2368 284.584 19.6893C275.896 28.1126 275.186 29.4687 272.272 32.7175C272.272 32.7175 279.621 30.3218 285.71 32.3699C285.71 32.3699 277.516 31.3676 272.382 33.4878C272.38 33.4891 274.592 34.3763 276.141 36.35Z" fill="#999999"/>
<path d="M285.792 32.5251C285.837 32.5015 285.869 32.4598 285.88 32.4073C285.888 32.3649 285.88 32.3207 285.858 32.2832C285.836 32.2456 285.801 32.2173 285.761 32.2037C280.687 30.4965 274.686 31.8685 272.81 32.377C273.31 31.8115 273.748 31.3001 274.206 30.763C276.092 28.558 278.043 26.2779 284.705 19.8173C284.737 19.7874 284.756 19.7459 284.758 19.7015C284.76 19.657 284.745 19.6129 284.717 19.5783C284.656 19.5082 284.555 19.4934 284.48 19.5514C277.932 24.6423 273.78 29.4924 272.275 31.372C275.097 22.384 274.071 7.92424 274.061 7.77443C274.057 7.72934 274.037 7.687 274.004 7.65606C273.97 7.62512 273.927 7.60793 273.883 7.60801C273.793 7.6089 273.718 7.68277 273.718 7.77905C273.708 24.0065 271.593 30.2807 270.935 31.8325C268.857 24.4067 261.677 15.7359 261.603 15.6476C261.541 15.5751 261.432 15.5579 261.364 15.622C261.293 15.6812 261.28 15.7873 261.338 15.8623C268.013 24.7539 269.716 30.532 270.084 32.1091C262.251 26.1674 256.609 27.6503 256.551 27.6655C256.462 27.6969 256.416 27.7741 256.432 27.8617C256.446 27.9505 256.525 28.0143 256.612 28.0086C263.055 27.7096 268.508 32.0211 269.803 33.1332C267.106 33.4645 265.142 34.398 265.122 34.4055L265.115 34.4093C265.038 34.4502 265.002 34.5469 265.041 34.6318C265.078 34.7204 265.176 34.7621 265.26 34.7296C266.08 34.4168 268.956 33.6339 271.312 34.1285C273.895 34.6672 276.014 36.4634 276.037 36.4826C276.103 36.5405 276.204 36.5371 276.269 36.4779C276.298 36.4475 276.316 36.4068 276.317 36.3635C276.319 36.3202 276.306 36.2772 276.279 36.2426C275.091 34.7297 273.542 33.8517 272.831 33.5017C277.882 31.6175 285.619 32.5329 285.7 32.5431C285.732 32.5468 285.764 32.5405 285.792 32.5251ZM281.676 22.292C277.184 26.7422 275.541 28.6633 273.944 30.5292C273.368 31.2064 272.819 31.8443 272.144 32.5957C272.094 32.6535 272.086 32.7413 272.13 32.8079C272.172 32.8757 272.255 32.9066 272.329 32.8827C272.393 32.8613 278.226 30.995 283.724 32.0338C280.95 31.8784 275.879 31.8518 272.314 33.3252C272.251 33.3429 272.208 33.4152 272.211 33.4883C272.212 33.559 272.258 33.6219 272.323 33.6493C272.339 33.6565 273.52 34.1396 274.741 35.1573C273.869 34.6346 272.687 34.0589 271.37 33.7843C270.528 33.6062 269.63 33.5846 268.78 33.6466C269.233 33.5617 269.72 33.4874 270.228 33.4361C270.292 33.433 270.348 33.3849 270.37 33.3201C270.38 33.2886 270.381 33.2547 270.372 33.2224C270.364 33.1901 270.346 33.1608 270.322 33.1378C270.272 33.0895 266.278 29.3559 260.812 28.0706C263.197 28.5126 266.464 29.7075 270.239 32.6572C270.296 32.7017 270.366 32.7047 270.429 32.6748C270.458 32.658 270.482 32.6324 270.496 32.6014C270.511 32.5704 270.516 32.5354 270.511 32.5009C270.507 32.4595 270.103 29.8737 267.713 25.226C269 27.5435 270.137 30.0331 270.727 32.3708C270.743 32.4401 270.8 32.4908 270.871 32.5059C270.94 32.5162 271.008 32.4863 271.042 32.425C271.148 32.2448 273.304 28.3698 273.907 15.0006C273.864 20.2586 273.42 27.2999 271.62 32.234C271.59 32.3148 271.625 32.4083 271.699 32.4526C271.775 32.4933 271.867 32.4753 271.918 32.4054C271.95 32.3538 275.318 27.7479 281.676 22.292Z" fill="#999999"/>
<path d="M267.101 42.9329C266.497 42.5915 265.565 41.0858 266.134 41.0083C266.787 40.9202 267.277 40.4376 267.754 40.021C268.278 39.5636 268.785 39.0748 269.195 38.504C269.46 38.1345 269.692 37.7447 269.872 37.3237C270.439 35.9872 270.699 34.7817 270.395 32.7422L270.362 32.5085L271.836 32.762L271.855 32.8886C271.877 33.0322 272.58 36.0428 270.79 38.9172C270.417 39.5181 269.964 40.0649 269.489 40.5802C268.854 41.2666 267.838 41.9067 267.519 42.8361C267.446 43.033 267.289 43.0382 267.101 42.9329Z" fill="#999999"/>
</g>
<defs>
<clipPath id="clip0_453_382">
<rect width="33.9926" height="35.1132" fill="white" transform="matrix(-0.883906 0.467665 0.467665 0.883906 278.371 0.360962)"/>
</clipPath>
</defs>
</svg>
