<svg width="337" height="279" viewBox="0 0 337 279" fill="none" xmlns="http://www.w3.org/2000/svg">
<mask id="path-1-outside-1_431_382" maskUnits="userSpaceOnUse" x="8" y="215" width="321" height="41" fill="black">
<rect fill="white" x="8" y="215" width="321" height="41"/>
<path d="M29.4931 239.46C27.0931 239.46 25.5931 237.96 25.5931 235.26C25.5931 232.68 27.0331 231.06 29.4931 231.06C31.7731 231.06 33.3331 232.56 33.3331 235.26C33.3331 237.9 31.8331 239.46 29.4931 239.46ZM13.4731 254.46C11.0731 254.46 9.57313 252.96 9.57313 250.26C9.57313 247.68 11.0131 246.06 13.4731 246.06C15.7531 246.06 17.3131 247.56 17.3131 250.26C17.3131 252.9 15.8131 254.46 13.4731 254.46ZM29.4931 254.46C27.0931 254.46 25.5931 252.96 25.5931 250.26C25.5931 247.68 27.0331 246.06 29.4931 246.06C31.7731 246.06 33.3331 247.56 33.3331 250.26C33.3331 252.9 31.8331 254.46 29.4931 254.46ZM71.5048 224.46C69.1048 224.46 67.6048 222.96 67.6048 220.26C67.6048 217.68 69.0448 216.06 71.5048 216.06C73.7848 216.06 75.3448 217.56 75.3448 220.26C75.3448 222.9 73.8448 224.46 71.5048 224.46ZM55.4848 239.46C53.0848 239.46 51.5848 237.96 51.5848 235.26C51.5848 232.68 53.0248 231.06 55.4848 231.06C57.7648 231.06 59.3248 232.56 59.3248 235.26C59.3248 237.9 57.8248 239.46 55.4848 239.46ZM55.4848 254.46C53.0848 254.46 51.5848 252.96 51.5848 250.26C51.5848 247.68 53.0248 246.06 55.4848 246.06C57.7648 246.06 59.3248 247.56 59.3248 250.26C59.3248 252.9 57.8248 254.46 55.4848 254.46ZM97.4966 224.46C95.0966 224.46 93.5966 222.96 93.5966 220.26C93.5966 217.68 95.0366 216.06 97.4966 216.06C99.7766 216.06 101.337 217.56 101.337 220.26C101.337 222.9 99.8366 224.46 97.4966 224.46ZM155.528 224.46C153.128 224.46 151.628 222.96 151.628 220.26C151.628 217.68 153.068 216.06 155.528 216.06C157.808 216.06 159.368 217.56 159.368 220.26C159.368 222.9 157.868 224.46 155.528 224.46ZM139.508 224.46C137.108 224.46 135.608 222.96 135.608 220.26C135.608 217.68 137.048 216.06 139.508 216.06C141.788 216.06 143.348 217.56 143.348 220.26C143.348 222.9 141.848 224.46 139.508 224.46ZM139.508 239.46C137.108 239.46 135.608 237.96 135.608 235.26C135.608 232.68 137.048 231.06 139.508 231.06C141.788 231.06 143.348 232.56 143.348 235.26C143.348 237.9 141.848 239.46 139.508 239.46ZM181.52 224.46C179.12 224.46 177.62 222.96 177.62 220.26C177.62 217.68 179.06 216.06 181.52 216.06C183.8 216.06 185.36 217.56 185.36 220.26C185.36 222.9 183.86 224.46 181.52 224.46ZM197.54 239.46C195.14 239.46 193.64 237.96 193.64 235.26C193.64 232.68 195.08 231.06 197.54 231.06C199.82 231.06 201.38 232.56 201.38 235.26C201.38 237.9 199.88 239.46 197.54 239.46ZM239.552 224.46C237.152 224.46 235.652 222.96 235.652 220.26C235.652 217.68 237.092 216.06 239.552 216.06C241.832 216.06 243.392 217.56 243.392 220.26C243.392 222.9 241.892 224.46 239.552 224.46ZM223.532 239.46C221.132 239.46 219.632 237.96 219.632 235.26C219.632 232.68 221.072 231.06 223.532 231.06C225.812 231.06 227.372 232.56 227.372 235.26C227.372 237.9 225.872 239.46 223.532 239.46ZM239.552 239.46C237.152 239.46 235.652 237.96 235.652 235.26C235.652 232.68 237.092 231.06 239.552 231.06C241.832 231.06 243.392 232.56 243.392 235.26C243.392 237.9 241.892 239.46 239.552 239.46ZM239.552 254.46C237.152 254.46 235.652 252.96 235.652 250.26C235.652 247.68 237.092 246.06 239.552 246.06C241.832 246.06 243.392 247.56 243.392 250.26C243.392 252.9 241.892 254.46 239.552 254.46ZM265.543 224.46C263.143 224.46 261.643 222.96 261.643 220.26C261.643 217.68 263.083 216.06 265.543 216.06C267.823 216.06 269.383 217.56 269.383 220.26C269.383 222.9 267.883 224.46 265.543 224.46ZM323.575 224.46C321.175 224.46 319.675 222.96 319.675 220.26C319.675 217.68 321.115 216.06 323.575 216.06C325.855 216.06 327.415 217.56 327.415 220.26C327.415 222.9 325.915 224.46 323.575 224.46ZM307.555 224.46C305.155 224.46 303.655 222.96 303.655 220.26C303.655 217.68 305.095 216.06 307.555 216.06C309.835 216.06 311.395 217.56 311.395 220.26C311.395 222.9 309.895 224.46 307.555 224.46ZM323.575 239.46C321.175 239.46 319.675 237.96 319.675 235.26C319.675 232.68 321.115 231.06 323.575 231.06C325.855 231.06 327.415 232.56 327.415 235.26C327.415 237.9 325.915 239.46 323.575 239.46ZM307.555 254.46C305.155 254.46 303.655 252.96 303.655 250.26C303.655 247.68 305.095 246.06 307.555 246.06C309.835 246.06 311.395 247.56 311.395 250.26C311.395 252.9 309.895 254.46 307.555 254.46ZM323.575 254.46C321.175 254.46 319.675 252.96 319.675 250.26C319.675 247.68 321.115 246.06 323.575 246.06C325.855 246.06 327.415 247.56 327.415 250.26C327.415 252.9 325.915 254.46 323.575 254.46Z"/>
</mask>
<path d="M29.4931 239.46C27.0931 239.46 25.5931 237.96 25.5931 235.26C25.5931 232.68 27.0331 231.06 29.4931 231.06C31.7731 231.06 33.3331 232.56 33.3331 235.26C33.3331 237.9 31.8331 239.46 29.4931 239.46ZM13.4731 254.46C11.0731 254.46 9.57313 252.96 9.57313 250.26C9.57313 247.68 11.0131 246.06 13.4731 246.06C15.7531 246.06 17.3131 247.56 17.3131 250.26C17.3131 252.9 15.8131 254.46 13.4731 254.46ZM29.4931 254.46C27.0931 254.46 25.5931 252.96 25.5931 250.26C25.5931 247.68 27.0331 246.06 29.4931 246.06C31.7731 246.06 33.3331 247.56 33.3331 250.26C33.3331 252.9 31.8331 254.46 29.4931 254.46ZM71.5048 224.46C69.1048 224.46 67.6048 222.96 67.6048 220.26C67.6048 217.68 69.0448 216.06 71.5048 216.06C73.7848 216.06 75.3448 217.56 75.3448 220.26C75.3448 222.9 73.8448 224.46 71.5048 224.46ZM55.4848 239.46C53.0848 239.46 51.5848 237.96 51.5848 235.26C51.5848 232.68 53.0248 231.06 55.4848 231.06C57.7648 231.06 59.3248 232.56 59.3248 235.26C59.3248 237.9 57.8248 239.46 55.4848 239.46ZM55.4848 254.46C53.0848 254.46 51.5848 252.96 51.5848 250.26C51.5848 247.68 53.0248 246.06 55.4848 246.06C57.7648 246.06 59.3248 247.56 59.3248 250.26C59.3248 252.9 57.8248 254.46 55.4848 254.46ZM97.4966 224.46C95.0966 224.46 93.5966 222.96 93.5966 220.26C93.5966 217.68 95.0366 216.06 97.4966 216.06C99.7766 216.06 101.337 217.56 101.337 220.26C101.337 222.9 99.8366 224.46 97.4966 224.46ZM155.528 224.46C153.128 224.46 151.628 222.96 151.628 220.26C151.628 217.68 153.068 216.06 155.528 216.06C157.808 216.06 159.368 217.56 159.368 220.26C159.368 222.9 157.868 224.46 155.528 224.46ZM139.508 224.46C137.108 224.46 135.608 222.96 135.608 220.26C135.608 217.68 137.048 216.06 139.508 216.06C141.788 216.06 143.348 217.56 143.348 220.26C143.348 222.9 141.848 224.46 139.508 224.46ZM139.508 239.46C137.108 239.46 135.608 237.96 135.608 235.26C135.608 232.68 137.048 231.06 139.508 231.06C141.788 231.06 143.348 232.56 143.348 235.26C143.348 237.9 141.848 239.46 139.508 239.46ZM181.52 224.46C179.12 224.46 177.62 222.96 177.62 220.26C177.62 217.68 179.06 216.06 181.52 216.06C183.8 216.06 185.36 217.56 185.36 220.26C185.36 222.9 183.86 224.46 181.52 224.46ZM197.54 239.46C195.14 239.46 193.64 237.96 193.64 235.26C193.64 232.68 195.08 231.06 197.54 231.06C199.82 231.06 201.38 232.56 201.38 235.26C201.38 237.9 199.88 239.46 197.54 239.46ZM239.552 224.46C237.152 224.46 235.652 222.96 235.652 220.26C235.652 217.68 237.092 216.06 239.552 216.06C241.832 216.06 243.392 217.56 243.392 220.26C243.392 222.9 241.892 224.46 239.552 224.46ZM223.532 239.46C221.132 239.46 219.632 237.96 219.632 235.26C219.632 232.68 221.072 231.06 223.532 231.06C225.812 231.06 227.372 232.56 227.372 235.26C227.372 237.9 225.872 239.46 223.532 239.46ZM239.552 239.46C237.152 239.46 235.652 237.96 235.652 235.26C235.652 232.68 237.092 231.06 239.552 231.06C241.832 231.06 243.392 232.56 243.392 235.26C243.392 237.9 241.892 239.46 239.552 239.46ZM239.552 254.46C237.152 254.46 235.652 252.96 235.652 250.26C235.652 247.68 237.092 246.06 239.552 246.06C241.832 246.06 243.392 247.56 243.392 250.26C243.392 252.9 241.892 254.46 239.552 254.46ZM265.543 224.46C263.143 224.46 261.643 222.96 261.643 220.26C261.643 217.68 263.083 216.06 265.543 216.06C267.823 216.06 269.383 217.56 269.383 220.26C269.383 222.9 267.883 224.46 265.543 224.46ZM323.575 224.46C321.175 224.46 319.675 222.96 319.675 220.26C319.675 217.68 321.115 216.06 323.575 216.06C325.855 216.06 327.415 217.56 327.415 220.26C327.415 222.9 325.915 224.46 323.575 224.46ZM307.555 224.46C305.155 224.46 303.655 222.96 303.655 220.26C303.655 217.68 305.095 216.06 307.555 216.06C309.835 216.06 311.395 217.56 311.395 220.26C311.395 222.9 309.895 224.46 307.555 224.46ZM323.575 239.46C321.175 239.46 319.675 237.96 319.675 235.26C319.675 232.68 321.115 231.06 323.575 231.06C325.855 231.06 327.415 232.56 327.415 235.26C327.415 237.9 325.915 239.46 323.575 239.46ZM307.555 254.46C305.155 254.46 303.655 252.96 303.655 250.26C303.655 247.68 305.095 246.06 307.555 246.06C309.835 246.06 311.395 247.56 311.395 250.26C311.395 252.9 309.895 254.46 307.555 254.46ZM323.575 254.46C321.175 254.46 319.675 252.96 319.675 250.26C319.675 247.68 321.115 246.06 323.575 246.06C325.855 246.06 327.415 247.56 327.415 250.26C327.415 252.9 325.915 254.46 323.575 254.46Z" fill="#BC7C7C"/>
<path d="M29.4931 238.46C28.5054 238.46 27.8163 238.157 27.3691 237.685C26.9157 237.206 26.5931 236.429 26.5931 235.26H24.5931C24.5931 236.791 25.0205 238.114 25.9172 239.06C26.82 240.013 28.0809 240.46 29.4931 240.46V238.46ZM26.5931 235.26C26.5931 234.15 26.9012 233.366 27.3575 232.869C27.8034 232.383 28.4918 232.06 29.4931 232.06V230.06C28.0344 230.06 26.7729 230.547 25.8838 231.516C25.005 232.474 24.5931 233.79 24.5931 235.26H26.5931ZM29.4931 232.06C30.4083 232.06 31.0877 232.356 31.5422 232.835C32.0011 233.32 32.3331 234.101 32.3331 235.26H34.3331C34.3331 233.719 33.8851 232.4 32.9941 231.46C32.0986 230.514 30.858 230.06 29.4931 230.06V232.06ZM32.3331 235.26C32.3331 236.394 32.013 237.179 31.5573 237.67C31.1093 238.153 30.4327 238.46 29.4931 238.46V240.46C30.8935 240.46 32.1369 239.987 33.024 239.03C33.9032 238.081 34.3331 236.766 34.3331 235.26H32.3331ZM13.4731 253.46C12.4854 253.46 11.7963 253.157 11.3491 252.685C10.8957 252.206 10.5731 251.429 10.5731 250.26H8.57313C8.57313 251.791 9.00052 253.114 9.89717 254.06C10.8 255.013 12.0609 255.46 13.4731 255.46V253.46ZM10.5731 250.26C10.5731 249.15 10.8812 248.366 11.3375 247.869C11.7834 247.383 12.4718 247.06 13.4731 247.06V245.06C12.0144 245.06 10.7529 245.547 9.86379 246.516C8.98503 247.474 8.57313 248.79 8.57313 250.26H10.5731ZM13.4731 247.06C14.3883 247.06 15.0677 247.356 15.5222 247.835C15.9811 248.32 16.3131 249.101 16.3131 250.26H18.3131C18.3131 248.719 17.8651 247.4 16.9741 246.46C16.0786 245.514 14.838 245.06 13.4731 245.06V247.06ZM16.3131 250.26C16.3131 251.394 15.993 252.179 15.5373 252.67C15.0893 253.153 14.4127 253.46 13.4731 253.46V255.46C14.8735 255.46 16.1169 254.987 17.004 254.03C17.8832 253.081 18.3131 251.766 18.3131 250.26H16.3131ZM29.4931 253.46C28.5054 253.46 27.8163 253.157 27.3691 252.685C26.9157 252.206 26.5931 251.429 26.5931 250.26H24.5931C24.5931 251.791 25.0205 253.114 25.9172 254.06C26.82 255.013 28.0809 255.46 29.4931 255.46V253.46ZM26.5931 250.26C26.5931 249.15 26.9012 248.366 27.3575 247.869C27.8034 247.383 28.4918 247.06 29.4931 247.06V245.06C28.0344 245.06 26.7729 245.547 25.8838 246.516C25.005 247.474 24.5931 248.79 24.5931 250.26H26.5931ZM29.4931 247.06C30.4083 247.06 31.0877 247.356 31.5422 247.835C32.0011 248.32 32.3331 249.101 32.3331 250.26H34.3331C34.3331 248.719 33.8851 247.4 32.9941 246.46C32.0986 245.514 30.858 245.06 29.4931 245.06V247.06ZM32.3331 250.26C32.3331 251.394 32.013 252.179 31.5573 252.67C31.1093 253.153 30.4327 253.46 29.4931 253.46V255.46C30.8935 255.46 32.1369 254.987 33.024 254.03C33.9032 253.081 34.3331 251.766 34.3331 250.26H32.3331ZM71.5048 223.46C70.5171 223.46 69.828 223.157 69.3808 222.685C68.9275 222.206 68.6048 221.429 68.6048 220.26H66.6048C66.6048 221.791 67.0322 223.114 67.9289 224.06C68.8317 225.013 70.0926 225.46 71.5048 225.46V223.46ZM68.6048 220.26C68.6048 219.15 68.9129 218.366 69.3692 217.869C69.8151 217.383 70.5035 217.06 71.5048 217.06V215.06C70.0462 215.06 68.7846 215.547 67.8955 216.516C67.0167 217.474 66.6048 218.79 66.6048 220.26H68.6048ZM71.5048 217.06C72.42 217.06 73.0994 217.356 73.5539 217.835C74.0129 218.32 74.3448 219.101 74.3448 220.26H76.3448C76.3448 218.719 75.8968 217.4 75.0058 216.46C74.1103 215.514 72.8697 215.06 71.5048 215.06V217.06ZM74.3448 220.26C74.3448 221.394 74.0247 222.179 73.569 222.67C73.121 223.153 72.4444 223.46 71.5048 223.46V225.46C72.9053 225.46 74.1487 224.987 75.0357 224.03C75.9149 223.081 76.3448 221.766 76.3448 220.26H74.3448ZM55.4848 238.46C54.4971 238.46 53.808 238.157 53.3608 237.685C52.9074 237.206 52.5848 236.429 52.5848 235.26H50.5848C50.5848 236.791 51.0122 238.114 51.9089 239.06C52.8117 240.013 54.0726 240.46 55.4848 240.46V238.46ZM52.5848 235.26C52.5848 234.15 52.8929 233.366 53.3492 232.869C53.7951 232.383 54.4835 232.06 55.4848 232.06V230.06C54.0262 230.06 52.7646 230.547 51.8755 231.516C50.9967 232.474 50.5848 233.79 50.5848 235.26H52.5848ZM55.4848 232.06C56.4 232.06 57.0794 232.356 57.5339 232.835C57.9929 233.32 58.3248 234.101 58.3248 235.26H60.3248C60.3248 233.719 59.8768 232.4 58.9858 231.46C58.0903 230.514 56.8497 230.06 55.4848 230.06V232.06ZM58.3248 235.26C58.3248 236.394 58.0047 237.179 57.549 237.67C57.101 238.153 56.4244 238.46 55.4848 238.46V240.46C56.8853 240.46 58.1287 239.987 59.0157 239.03C59.8949 238.081 60.3248 236.766 60.3248 235.26H58.3248ZM55.4848 253.46C54.4971 253.46 53.808 253.157 53.3608 252.685C52.9074 252.206 52.5848 251.429 52.5848 250.26H50.5848C50.5848 251.791 51.0122 253.114 51.9089 254.06C52.8117 255.013 54.0726 255.46 55.4848 255.46V253.46ZM52.5848 250.26C52.5848 249.15 52.8929 248.366 53.3492 247.869C53.7951 247.383 54.4835 247.06 55.4848 247.06V245.06C54.0262 245.06 52.7646 245.547 51.8755 246.516C50.9967 247.474 50.5848 248.79 50.5848 250.26H52.5848ZM55.4848 247.06C56.4 247.06 57.0794 247.356 57.5339 247.835C57.9929 248.32 58.3248 249.101 58.3248 250.26H60.3248C60.3248 248.719 59.8768 247.4 58.9858 246.46C58.0903 245.514 56.8497 245.06 55.4848 245.06V247.06ZM58.3248 250.26C58.3248 251.394 58.0047 252.179 57.549 252.67C57.101 253.153 56.4244 253.46 55.4848 253.46V255.46C56.8853 255.46 58.1287 254.987 59.0157 254.03C59.8949 253.081 60.3248 251.766 60.3248 250.26H58.3248ZM97.4966 223.46C96.5088 223.46 95.8197 223.157 95.3725 222.685C94.9192 222.206 94.5966 221.429 94.5966 220.26H92.5966C92.5966 221.791 93.024 223.114 93.9206 224.06C94.8234 225.013 96.0843 225.46 97.4966 225.46V223.46ZM94.5966 220.26C94.5966 219.15 94.9047 218.366 95.3609 217.869C95.8068 217.383 96.4952 217.06 97.4966 217.06V215.06C96.0379 215.06 94.7763 215.547 93.8872 216.516C93.0085 217.474 92.5966 218.79 92.5966 220.26H94.5966ZM97.4966 217.06C98.4117 217.06 99.0911 217.356 99.5456 217.835C100.005 218.32 100.337 219.101 100.337 220.26H102.337C102.337 218.719 101.889 217.4 100.998 216.46C100.102 215.514 98.8614 215.06 97.4966 215.06V217.06ZM100.337 220.26C100.337 221.394 100.016 222.179 99.5607 222.67C99.1128 223.153 98.4361 223.46 97.4966 223.46V225.46C98.897 225.46 100.14 224.987 101.027 224.03C101.907 223.081 102.337 221.766 102.337 220.26H100.337ZM155.528 223.46C154.541 223.46 153.851 223.157 153.404 222.685C152.951 222.206 152.628 221.429 152.628 220.26H150.628C150.628 221.791 151.056 223.114 151.952 224.06C152.855 225.013 154.116 225.46 155.528 225.46V223.46ZM152.628 220.26C152.628 219.15 152.936 218.366 153.393 217.869C153.839 217.383 154.527 217.06 155.528 217.06V215.06C154.07 215.06 152.808 215.547 151.919 216.516C151.04 217.474 150.628 218.79 150.628 220.26H152.628ZM155.528 217.06C156.443 217.06 157.123 217.356 157.577 217.835C158.036 218.32 158.368 219.101 158.368 220.26H160.368C160.368 218.719 159.92 217.4 159.029 216.46C158.134 215.514 156.893 215.06 155.528 215.06V217.06ZM158.368 220.26C158.368 221.394 158.048 222.179 157.592 222.67C157.144 223.153 156.468 223.46 155.528 223.46V225.46C156.929 225.46 158.172 224.987 159.059 224.03C159.938 223.081 160.368 221.766 160.368 220.26H158.368ZM139.508 223.46C138.521 223.46 137.831 223.157 137.384 222.685C136.931 222.206 136.608 221.429 136.608 220.26H134.608C134.608 221.791 135.036 223.114 135.932 224.06C136.835 225.013 138.096 225.46 139.508 225.46V223.46ZM136.608 220.26C136.608 219.15 136.916 218.366 137.373 217.869C137.819 217.383 138.507 217.06 139.508 217.06V215.06C138.05 215.06 136.788 215.547 135.899 216.516C135.02 217.474 134.608 218.79 134.608 220.26H136.608ZM139.508 217.06C140.423 217.06 141.103 217.356 141.557 217.835C142.016 218.32 142.348 219.101 142.348 220.26H144.348C144.348 218.719 143.9 217.4 143.009 216.46C142.114 215.514 140.873 215.06 139.508 215.06V217.06ZM142.348 220.26C142.348 221.394 142.028 222.179 141.572 222.67C141.124 223.153 140.448 223.46 139.508 223.46V225.46C140.909 225.46 142.152 224.987 143.039 224.03C143.918 223.081 144.348 221.766 144.348 220.26H142.348ZM139.508 238.46C138.521 238.46 137.831 238.157 137.384 237.685C136.931 237.206 136.608 236.429 136.608 235.26H134.608C134.608 236.791 135.036 238.114 135.932 239.06C136.835 240.013 138.096 240.46 139.508 240.46V238.46ZM136.608 235.26C136.608 234.15 136.916 233.366 137.373 232.869C137.819 232.383 138.507 232.06 139.508 232.06V230.06C138.05 230.06 136.788 230.547 135.899 231.516C135.02 232.474 134.608 233.79 134.608 235.26H136.608ZM139.508 232.06C140.423 232.06 141.103 232.356 141.557 232.835C142.016 233.32 142.348 234.101 142.348 235.26H144.348C144.348 233.719 143.9 232.4 143.009 231.46C142.114 230.514 140.873 230.06 139.508 230.06V232.06ZM142.348 235.26C142.348 236.394 142.028 237.179 141.572 237.67C141.124 238.153 140.448 238.46 139.508 238.46V240.46C140.909 240.46 142.152 239.987 143.039 239.03C143.918 238.081 144.348 236.766 144.348 235.26H142.348ZM181.52 223.46C180.532 223.46 179.843 223.157 179.396 222.685C178.943 222.206 178.62 221.429 178.62 220.26H176.62C176.62 221.791 177.047 223.114 177.944 224.06C178.847 225.013 180.108 225.46 181.52 225.46V223.46ZM178.62 220.26C178.62 219.15 178.928 218.366 179.384 217.869C179.83 217.383 180.519 217.06 181.52 217.06V215.06C180.061 215.06 178.8 215.547 177.911 216.516C177.032 217.474 176.62 218.79 176.62 220.26H178.62ZM181.52 217.06C182.435 217.06 183.115 217.356 183.569 217.835C184.028 218.32 184.36 219.101 184.36 220.26H186.36C186.36 218.719 185.912 217.4 185.021 216.46C184.125 215.514 182.885 215.06 181.52 215.06V217.06ZM184.36 220.26C184.36 221.394 184.04 222.179 183.584 222.67C183.136 223.153 182.46 223.46 181.52 223.46V225.46C182.92 225.46 184.164 224.987 185.051 224.03C185.93 223.081 186.36 221.766 186.36 220.26H184.36ZM197.54 238.46C196.552 238.46 195.863 238.157 195.416 237.685C194.963 237.206 194.64 236.429 194.64 235.26H192.64C192.64 236.791 193.067 238.114 193.964 239.06C194.867 240.013 196.128 240.46 197.54 240.46V238.46ZM194.64 235.26C194.64 234.15 194.948 233.366 195.404 232.869C195.85 232.383 196.539 232.06 197.54 232.06V230.06C196.081 230.06 194.82 230.547 193.931 231.516C193.052 232.474 192.64 233.79 192.64 235.26H194.64ZM197.54 232.06C198.455 232.06 199.135 232.356 199.589 232.835C200.048 233.32 200.38 234.101 200.38 235.26H202.38C202.38 233.719 201.932 232.4 201.041 231.46C200.145 230.514 198.905 230.06 197.54 230.06V232.06ZM200.38 235.26C200.38 236.394 200.06 237.179 199.604 237.67C199.156 238.153 198.48 238.46 197.54 238.46V240.46C198.94 240.46 200.184 239.987 201.071 239.03C201.95 238.081 202.38 236.766 202.38 235.26H200.38ZM239.552 223.46C238.564 223.46 237.875 223.157 237.428 222.685C236.974 222.206 236.652 221.429 236.652 220.26H234.652C234.652 221.791 235.079 223.114 235.976 224.06C236.879 225.013 238.139 225.46 239.552 225.46V223.46ZM236.652 220.26C236.652 219.15 236.96 218.366 237.416 217.869C237.862 217.383 238.55 217.06 239.552 217.06V215.06C238.093 215.06 236.831 215.547 235.942 216.516C235.064 217.474 234.652 218.79 234.652 220.26H236.652ZM239.552 217.06C240.467 217.06 241.146 217.356 241.601 217.835C242.06 218.32 242.392 219.101 242.392 220.26H244.392C244.392 218.719 243.944 217.4 243.053 216.46C242.157 215.514 240.917 215.06 239.552 215.06V217.06ZM242.392 220.26C242.392 221.394 242.072 222.179 241.616 222.67C241.168 223.153 240.491 223.46 239.552 223.46V225.46C240.952 225.46 242.196 224.987 243.083 224.03C243.962 223.081 244.392 221.766 244.392 220.26H242.392ZM223.532 238.46C222.544 238.46 221.855 238.157 221.408 237.685C220.954 237.206 220.632 236.429 220.632 235.26H218.632C218.632 236.791 219.059 238.114 219.956 239.06C220.859 240.013 222.119 240.46 223.532 240.46V238.46ZM220.632 235.26C220.632 234.15 220.94 233.366 221.396 232.869C221.842 232.383 222.53 232.06 223.532 232.06V230.06C222.073 230.06 220.811 230.547 219.922 231.516C219.044 232.474 218.632 233.79 218.632 235.26H220.632ZM223.532 232.06C224.447 232.06 225.126 232.356 225.581 232.835C226.04 233.32 226.372 234.101 226.372 235.26H228.372C228.372 233.719 227.924 232.4 227.033 231.46C226.137 230.514 224.897 230.06 223.532 230.06V232.06ZM226.372 235.26C226.372 236.394 226.052 237.179 225.596 237.67C225.148 238.153 224.471 238.46 223.532 238.46V240.46C224.932 240.46 226.176 239.987 227.063 239.03C227.942 238.081 228.372 236.766 228.372 235.26H226.372ZM239.552 238.46C238.564 238.46 237.875 238.157 237.428 237.685C236.974 237.206 236.652 236.429 236.652 235.26H234.652C234.652 236.791 235.079 238.114 235.976 239.06C236.879 240.013 238.139 240.46 239.552 240.46V238.46ZM236.652 235.26C236.652 234.15 236.96 233.366 237.416 232.869C237.862 232.383 238.55 232.06 239.552 232.06V230.06C238.093 230.06 236.831 230.547 235.942 231.516C235.064 232.474 234.652 233.79 234.652 235.26H236.652ZM239.552 232.06C240.467 232.06 241.146 232.356 241.601 232.835C242.06 233.32 242.392 234.101 242.392 235.26H244.392C244.392 233.719 243.944 232.4 243.053 231.46C242.157 230.514 240.917 230.06 239.552 230.06V232.06ZM242.392 235.26C242.392 236.394 242.072 237.179 241.616 237.67C241.168 238.153 240.491 238.46 239.552 238.46V240.46C240.952 240.46 242.196 239.987 243.083 239.03C243.962 238.081 244.392 236.766 244.392 235.26H242.392ZM239.552 253.46C238.564 253.46 237.875 253.157 237.428 252.685C236.974 252.206 236.652 251.429 236.652 250.26H234.652C234.652 251.791 235.079 253.114 235.976 254.06C236.879 255.013 238.139 255.46 239.552 255.46V253.46ZM236.652 250.26C236.652 249.15 236.96 248.366 237.416 247.869C237.862 247.383 238.55 247.06 239.552 247.06V245.06C238.093 245.06 236.831 245.547 235.942 246.516C235.064 247.474 234.652 248.79 234.652 250.26H236.652ZM239.552 247.06C240.467 247.06 241.146 247.356 241.601 247.835C242.06 248.32 242.392 249.101 242.392 250.26H244.392C244.392 248.719 243.944 247.4 243.053 246.46C242.157 245.514 240.917 245.06 239.552 245.06V247.06ZM242.392 250.26C242.392 251.394 242.072 252.179 241.616 252.67C241.168 253.153 240.491 253.46 239.552 253.46V255.46C240.952 255.46 242.196 254.987 243.083 254.03C243.962 253.081 244.392 251.766 244.392 250.26H242.392ZM265.543 223.46C264.556 223.46 263.867 223.157 263.419 222.685C262.966 222.206 262.643 221.429 262.643 220.26H260.643C260.643 221.791 261.071 223.114 261.967 224.06C262.87 225.013 264.131 225.46 265.543 225.46V223.46ZM262.643 220.26C262.643 219.15 262.952 218.366 263.408 217.869C263.854 217.383 264.542 217.06 265.543 217.06V215.06C264.085 215.06 262.823 215.547 261.934 216.516C261.055 217.474 260.643 218.79 260.643 220.26H262.643ZM265.543 217.06C266.459 217.06 267.138 217.356 267.592 217.835C268.051 218.32 268.383 219.101 268.383 220.26H270.383C270.383 218.719 269.935 217.4 269.044 216.46C268.149 215.514 266.908 215.06 265.543 215.06V217.06ZM268.383 220.26C268.383 221.394 268.063 222.179 267.608 222.67C267.16 223.153 266.483 223.46 265.543 223.46V225.46C266.944 225.46 268.187 224.987 269.074 224.03C269.954 223.081 270.383 221.766 270.383 220.26H268.383ZM323.575 223.46C322.587 223.46 321.898 223.157 321.451 222.685C320.998 222.206 320.675 221.429 320.675 220.26H318.675C318.675 221.791 319.103 223.114 319.999 224.06C320.902 225.013 322.163 225.46 323.575 225.46V223.46ZM320.675 220.26C320.675 219.15 320.983 218.366 321.439 217.869C321.885 217.383 322.574 217.06 323.575 217.06V215.06C322.116 215.06 320.855 215.547 319.966 216.516C319.087 217.474 318.675 218.79 318.675 220.26H320.675ZM323.575 217.06C324.49 217.06 325.17 217.356 325.624 217.835C326.083 218.32 326.415 219.101 326.415 220.26H328.415C328.415 218.719 327.967 217.4 327.076 216.46C326.181 215.514 324.94 215.06 323.575 215.06V217.06ZM326.415 220.26C326.415 221.394 326.095 222.179 325.639 222.67C325.191 223.153 324.515 223.46 323.575 223.46V225.46C324.976 225.46 326.219 224.987 327.106 224.03C327.985 223.081 328.415 221.766 328.415 220.26H326.415ZM307.555 223.46C306.567 223.46 305.878 223.157 305.431 222.685C304.978 222.206 304.655 221.429 304.655 220.26H302.655C302.655 221.791 303.083 223.114 303.979 224.06C304.882 225.013 306.143 225.46 307.555 225.46V223.46ZM304.655 220.26C304.655 219.15 304.963 218.366 305.419 217.869C305.865 217.383 306.554 217.06 307.555 217.06V215.06C306.096 215.06 304.835 215.547 303.946 216.516C303.067 217.474 302.655 218.79 302.655 220.26H304.655ZM307.555 217.06C308.47 217.06 309.15 217.356 309.604 217.835C310.063 218.32 310.395 219.101 310.395 220.26H312.395C312.395 218.719 311.947 217.4 311.056 216.46C310.161 215.514 308.92 215.06 307.555 215.06V217.06ZM310.395 220.26C310.395 221.394 310.075 222.179 309.619 222.67C309.171 223.153 308.495 223.46 307.555 223.46V225.46C308.956 225.46 310.199 224.987 311.086 224.03C311.965 223.081 312.395 221.766 312.395 220.26H310.395ZM323.575 238.46C322.587 238.46 321.898 238.157 321.451 237.685C320.998 237.206 320.675 236.429 320.675 235.26H318.675C318.675 236.791 319.103 238.114 319.999 239.06C320.902 240.013 322.163 240.46 323.575 240.46V238.46ZM320.675 235.26C320.675 234.15 320.983 233.366 321.439 232.869C321.885 232.383 322.574 232.06 323.575 232.06V230.06C322.116 230.06 320.855 230.547 319.966 231.516C319.087 232.474 318.675 233.79 318.675 235.26H320.675ZM323.575 232.06C324.49 232.06 325.17 232.356 325.624 232.835C326.083 233.32 326.415 234.101 326.415 235.26H328.415C328.415 233.719 327.967 232.4 327.076 231.46C326.181 230.514 324.94 230.06 323.575 230.06V232.06ZM326.415 235.26C326.415 236.394 326.095 237.179 325.639 237.67C325.191 238.153 324.515 238.46 323.575 238.46V240.46C324.976 240.46 326.219 239.987 327.106 239.03C327.985 238.081 328.415 236.766 328.415 235.26H326.415ZM307.555 253.46C306.567 253.46 305.878 253.157 305.431 252.685C304.978 252.206 304.655 251.429 304.655 250.26H302.655C302.655 251.791 303.083 253.114 303.979 254.06C304.882 255.013 306.143 255.46 307.555 255.46V253.46ZM304.655 250.26C304.655 249.15 304.963 248.366 305.419 247.869C305.865 247.383 306.554 247.06 307.555 247.06V245.06C306.096 245.06 304.835 245.547 303.946 246.516C303.067 247.474 302.655 248.79 302.655 250.26H304.655ZM307.555 247.06C308.47 247.06 309.15 247.356 309.604 247.835C310.063 248.32 310.395 249.101 310.395 250.26H312.395C312.395 248.719 311.947 247.4 311.056 246.46C310.161 245.514 308.92 245.06 307.555 245.06V247.06ZM310.395 250.26C310.395 251.394 310.075 252.179 309.619 252.67C309.171 253.153 308.495 253.46 307.555 253.46V255.46C308.956 255.46 310.199 254.987 311.086 254.03C311.965 253.081 312.395 251.766 312.395 250.26H310.395ZM323.575 253.46C322.587 253.46 321.898 253.157 321.451 252.685C320.998 252.206 320.675 251.429 320.675 250.26H318.675C318.675 251.791 319.103 253.114 319.999 254.06C320.902 255.013 322.163 255.46 323.575 255.46V253.46ZM320.675 250.26C320.675 249.15 320.983 248.366 321.439 247.869C321.885 247.383 322.574 247.06 323.575 247.06V245.06C322.116 245.06 320.855 245.547 319.966 246.516C319.087 247.474 318.675 248.79 318.675 250.26H320.675ZM323.575 247.06C324.49 247.06 325.17 247.356 325.624 247.835C326.083 248.32 326.415 249.101 326.415 250.26H328.415C328.415 248.719 327.967 247.4 327.076 246.46C326.181 245.514 324.94 245.06 323.575 245.06V247.06ZM326.415 250.26C326.415 251.394 326.095 252.179 325.639 252.67C325.191 253.153 324.515 253.46 323.575 253.46V255.46C324.976 255.46 326.219 254.987 327.106 254.03C327.985 253.081 328.415 251.766 328.415 250.26H326.415Z" fill="black" mask="url(#path-1-outside-1_431_382)"/>
<rect x="160.5" y="32.5" width="17" height="147" rx="8.5" fill="#F6EFBD" stroke="black"/>
<path d="M178.5 10C178.5 15.2467 174.247 19.5 169 19.5C163.753 19.5 159.5 15.2467 159.5 10C159.5 4.75329 163.753 0.5 169 0.5C174.247 0.5 178.5 4.75329 178.5 10Z" fill="#F6EFBD" stroke="black"/>
<circle cx="168.5" cy="44.5" r="2.5" fill="#A2D2DF"/>
<circle cx="168.5" cy="52.5" r="2.5" fill="#A2D2DF"/>
</svg>
