<svg width="44" height="44" viewBox="0 0 44 44" fill="none" xmlns="http://www.w3.org/2000/svg">
<path d="M35.7226 36.949L24.2423 25.4687C23.3256 26.2497 22.2714 26.8541 21.0798 27.2818C19.8881 27.7096 18.6903 27.9235 17.4864 27.9235C14.5507 27.9235 12.0659 26.9072 10.0321 24.8747C7.99833 22.8421 6.98145 20.358 6.98145 17.4222C6.98145 14.4864 7.99711 12.001 10.0284 9.96601C12.0598 7.93101 14.5433 6.91228 17.4791 6.90984C20.4149 6.9074 22.9009 7.92428 24.9371 9.96051C26.9733 11.9967 27.9914 14.4821 27.9914 17.4167C27.9914 18.6902 27.7659 19.9228 27.3149 21.1145C26.8639 22.3062 26.2712 23.3255 25.5366 24.1725L37.0169 35.651L35.7226 36.949ZM17.4883 26.0883C19.9205 26.0883 21.9738 25.2511 23.6483 23.5767C25.3227 21.9022 26.1599 19.8483 26.1599 17.4148C26.1599 14.9814 25.3227 12.9281 23.6483 11.2548C21.9738 9.58162 19.9205 8.7444 17.4883 8.74317C15.0561 8.74195 13.0021 9.57917 11.3264 11.2548C9.65078 12.9305 8.81356 14.9838 8.81478 17.4148C8.816 19.8458 9.65322 21.8992 11.3264 23.5748C12.9997 25.2505 15.053 26.0877 17.4864 26.0865" fill="#BC7C7C"/>
</svg>
