<svg width="24" height="24" viewBox="0 0 24 24" fill="none" xmlns="http://www.w3.org/2000/svg">
<path fill-rule="evenodd" clip-rule="evenodd" d="M13.4787 12.4776L20.1639 7.37763C20.2375 7.32165 20.2972 7.24942 20.3383 7.16657C20.3794 7.08373 20.4008 6.9925 20.4008 6.90003C20.4008 6.80755 20.3794 6.71633 20.3383 6.63348C20.2972 6.55063 20.2375 6.4784 20.1639 6.42243L13.4787 1.32243C13.3898 1.25465 13.2836 1.21309 13.1723 1.20244C13.061 1.19178 12.9489 1.21245 12.8487 1.26212C12.7485 1.31178 12.6642 1.38847 12.6052 1.48351C12.5463 1.57856 12.5151 1.68819 12.5151 1.80003V12C12.5151 12.1119 12.5463 12.2215 12.6052 12.3165C12.6642 12.4116 12.7485 12.4883 12.8487 12.5379C12.9489 12.5876 13.061 12.6083 13.1723 12.5976C13.2836 12.587 13.3898 12.5454 13.4787 12.4776ZM13.7151 10.788V3.01203L18.8115 6.90003L13.7151 10.788Z" fill="black"/>
<path fill-rule="evenodd" clip-rule="evenodd" d="M13.4787 22.6776L20.1639 17.5776C20.2375 17.5216 20.2972 17.4494 20.3383 17.3665C20.3794 17.2837 20.4008 17.1925 20.4008 17.1C20.4008 17.0075 20.3794 16.9163 20.3383 16.8334C20.2972 16.7506 20.2375 16.6784 20.1639 16.6224L13.4787 11.5224C13.3898 11.4546 13.2836 11.413 13.1723 11.4024C13.061 11.3917 12.9489 11.4124 12.8487 11.4621C12.7485 11.5117 12.6642 11.5884 12.6052 11.6835C12.5463 11.7785 12.5151 11.8881 12.5151 12V22.2C12.5151 22.3118 12.5463 22.4214 12.6052 22.5165C12.6642 22.6115 12.7485 22.6882 12.8487 22.7379C12.9489 22.7876 13.061 22.8082 13.1723 22.7976C13.2836 22.7869 13.3898 22.7454 13.4787 22.6776ZM13.7151 13.212L18.8115 17.1L13.7151 20.988V13.212Z" fill="black"/>
<path d="M13.4739 11.52C13.5413 11.5654 13.5988 11.6241 13.6428 11.6924C13.6869 11.7607 13.7166 11.8372 13.7302 11.9173C13.7438 11.9974 13.7409 12.0795 13.7219 12.1585C13.7028 12.2375 13.6679 12.3118 13.6192 12.3769C13.5706 12.4419 13.5092 12.4965 13.4388 12.5371C13.3685 12.5778 13.2906 12.6037 13.2099 12.6134C13.1292 12.623 13.0474 12.6162 12.9694 12.5933C12.8914 12.5703 12.8189 12.5318 12.7563 12.48L4.39831 6.24844C4.3327 6.20228 4.27702 6.14343 4.23455 6.07538C4.19208 6.00733 4.16368 5.93145 4.15105 5.85224C4.13841 5.77302 4.14179 5.69208 4.16097 5.61419C4.18016 5.5363 4.21477 5.46305 4.26276 5.39877C4.31075 5.33449 4.37114 5.28049 4.44037 5.23995C4.50959 5.19942 4.58624 5.17318 4.66578 5.16278C4.74532 5.15238 4.82613 5.15804 4.90345 5.17941C4.98077 5.20079 5.05301 5.23745 5.11591 5.28724L13.4739 11.52Z" fill="black"/>
<path d="M13.4737 12.4799C13.541 12.4345 13.5985 12.3759 13.6426 12.3076C13.6866 12.2393 13.7163 12.1628 13.7299 12.0826C13.7435 12.0025 13.7407 11.9205 13.7216 11.8415C13.7025 11.7625 13.6676 11.6882 13.619 11.6231C13.5703 11.558 13.5089 11.5035 13.4386 11.4628C13.3682 11.4222 13.2903 11.3962 13.2096 11.3866C13.1289 11.3769 13.0471 11.3838 12.9692 11.4067C12.8912 11.4296 12.8187 11.4681 12.7561 11.5199L4.39806 17.7527C4.27557 17.8496 4.19572 17.9905 4.17547 18.1454C4.15523 18.3003 4.19618 18.457 4.28962 18.5821C4.38307 18.7073 4.52164 18.7911 4.67589 18.8157C4.83014 18.8403 4.9879 18.8038 5.11566 18.7139L13.4737 12.4799Z" fill="black"/>
<path d="M1.38021 2.25346C1.26452 2.13761 1.19959 1.98055 1.19971 1.81683C1.19982 1.65311 1.26496 1.49614 1.38081 1.38046C1.49666 1.26477 1.65372 1.19984 1.81744 1.19995C1.98115 1.20006 2.13812 1.26521 2.25381 1.38106L22.619 21.7463C22.7347 21.8619 22.7997 22.0188 22.7997 22.1825C22.7997 22.3461 22.7347 22.503 22.619 22.6187C22.5033 22.7343 22.3464 22.7993 22.1828 22.7993C22.0192 22.7993 21.8623 22.7343 21.7466 22.6187L1.38021 2.25346Z" fill="black"/>
</svg>
